HIERARCHY
ROOT root
{
	OFFSET	0	13.1	24.9
	CHANNELS 6  Xposition Yposition Zposition Xrotation Yrotation Zrotation
	JOINT spine_1
	{
		OFFSET	0	9.99999	0
		CHANNELS 3  Xrotation Yrotation Zrotation
		JOINT spine_2
		{
			OFFSET	0	112	-10
			CHANNELS 3  Xrotation Yrotation Zrotation
			JOINT spine_3
			{
				OFFSET	0	206.5	19.3
				CHANNELS 3  Xrotation Yrotation Zrotation
				JOINT spine_4
				{
					OFFSET	0	110.4	14.6
					CHANNELS 3  Xrotation Yrotation Zrotation
					JOINT neck_1
					{
						OFFSET	0	71.8	-50.3
						CHANNELS 3  Xrotation Yrotation Zrotation
						JOINT neck_2
						{
							OFFSET	0	86.2	-25.8
							CHANNELS 3  Xrotation Yrotation Zrotation
							JOINT head_ee
							{
								OFFSET	0	179.8	-8.7
								CHANNELS 3  Xrotation Yrotation Zrotation
								End Site
								{
									OFFSET	1	0	0
								}
							}
						}
					}
					JOINT left_clavicle
					{
						OFFSET	-43.2	22.4	-70.8
						CHANNELS 3  Xrotation Yrotation Zrotation
						JOINT left_shoulder
						{
							OFFSET	-93.9	-5.79999	48.7
							CHANNELS 3  Xrotation Yrotation Zrotation
							JOINT left_elbow
							{
								OFFSET	-291.4	-30.8	15.2
								CHANNELS 3  Xrotation Yrotation Zrotation
								JOINT left_lowarm_twist
								{
									OFFSET	-110.7	-3.89999	13.6
									CHANNELS 3  Xrotation Yrotation Zrotation
									JOINT left_hand
									{
										OFFSET	-110.7	-3.89999	13.6
										CHANNELS 3  Xrotation Yrotation Zrotation
										JOINT left_ee
										{
											OFFSET	-80.8	-5.10001	12.1
											CHANNELS 3  Xrotation Yrotation Zrotation
											End Site
											{
												OFFSET	1	0	0
											}
										}
									}
								}
							}
						}
					}
					JOINT right_clavicle
					{
						OFFSET	43.2	22.4	-70.8
						CHANNELS 3  Xrotation Yrotation Zrotation
						JOINT right_shoulder
						{
							OFFSET	93.9	-5.79999	48.7
							CHANNELS 3  Xrotation Yrotation Zrotation
							JOINT right_elbow
							{
								OFFSET	291.4	-30.8	15.2
								CHANNELS 3  Xrotation Yrotation Zrotation
								JOINT right_lowarm_twist
								{
									OFFSET	110.7	-3.89999	13.6
									CHANNELS 3  Xrotation Yrotation Zrotation
									JOINT right_hand
									{
										OFFSET	110.7	-3.89999	13.6
										CHANNELS 3  Xrotation Yrotation Zrotation
										JOINT right_ee
										{
											OFFSET	80.8	-5.10001	12.1
											CHANNELS 3  Xrotation Yrotation Zrotation
											End Site
											{
												OFFSET	1	0	0
											}
										}
									}
								}
							}
						}
					}
				}
			}
		}
	}
	JOINT left_hip
	{
		OFFSET	-82.8	-127.5	0.300001
		CHANNELS 3  Xrotation Yrotation Zrotation
		JOINT left_knee
		{
			OFFSET	-28.2	-396.7	2.2
			CHANNELS 3  Xrotation Yrotation Zrotation
			JOINT left_ankle
			{
				OFFSET	-11.7	-411.3	35.4
				CHANNELS 3  Xrotation Yrotation Zrotation
				JOINT left_toes
				{
					OFFSET	0	-60	-88.6
					CHANNELS 3  Xrotation Yrotation Zrotation
					JOINT left_foot_ee
					{
						OFFSET	-22.5	-16.5	-42.2
						CHANNELS 3  Xrotation Yrotation Zrotation
						End Site
						{
							OFFSET	1	0	0
						}
					}
				}
			}
		}
	}
	JOINT right_hip
	{
		OFFSET	82.8	-127.5	0.300001
		CHANNELS 3  Xrotation Yrotation Zrotation
		JOINT right_knee
		{
			OFFSET	28.2	-396.7	2.2
			CHANNELS 3  Xrotation Yrotation Zrotation
			JOINT right_ankle
			{
				OFFSET	11.7	-411.3	35.4
				CHANNELS 3  Xrotation Yrotation Zrotation
				JOINT right_toes
				{
					OFFSET	0	-60	-88.6
					CHANNELS 3  Xrotation Yrotation Zrotation
					JOINT right_foot_ee
					{
						OFFSET	22.5	-16.5	-42.2
						CHANNELS 3  Xrotation Yrotation Zrotation
						End Site
						{
							OFFSET	1	0	0
						}
					}
				}
			}
		}
	}
}
MOTION
Frames: 12
Frame Time: 0.02
689.708 684.243 -1577.0 1.22563 83.0025 8.42388 1.02567 -0.409267 -3.45688 1.0323 -0.188603 -3.47589 1.04521 0.483825 -3.44725 1.02864 -0.0663341 -3.48037 -19.6291 13.0007 5.98873 -20.219 21.9985 11.0528 -0.0 0.0 -0.0 7.43359 19.852 13.4363 -5.00373 -33.2026 58.4497 2.18476 -47.2563 0.955867 -23.1261 -1.36024 2.60532 -0.216071 18.0094 5.99617 -0.0 0.0 -0.0 9.33865 -23.0854 -15.9152 -13.1571 7.97626 -52.994 0.940401 24.9779 -0.208297 -51.5849 4.25864 -4.76322 7.84891 10.6753 -56.9368 0.0 0.0 0.0 12.9442 10.8759 -16.5808 -10.2012 0.283745 1.53778 14.1446 -17.3636 -2.1835 3.65991 -0.0 -0.0 -0.0 0.0 -0.0 17.5264 3.32136 -10.0746 -40.9489 0.528237 -6.1306 17.1022 -26.3203 2.5004 30.1826 -0.0 -0.0 0.0 0.0 0.0 
680.029 685.638 -1576.6 -3.12238 82.9916 12.7541 1.1734 -0.626373 -3.4643 1.17998 -0.4048 -3.49708 1.20616 0.265484 -3.51039 1.18909 -0.291898 -3.50829 -20.3534 13.3571 4.52086 -21.1503 23.4997 10.0722 -0.0 0.0 -0.0 7.59588 20.8187 13.5898 -4.90996 -33.828 58.3766 2.19188 -47.3492 0.961103 -25.2495 -1.5358 2.8132 -0.560955 17.6127 3.73975 -0.0 0.0 -0.0 9.08712 -23.8643 -15.4154 -12.5545 6.46009 -52.6402 0.851956 22.8812 -0.172416 -48.1952 3.86179 -4.5852 7.89143 11.889 -56.3018 0.0 0.0 0.0 12.3904 12.3589 -15.9106 -6.67482 0.216716 1.00089 13.5472 -17.6369 -2.10161 3.3636 -0.0 -0.0 -0.0 0.0 -0.0 18.0232 0.960695 -9.39848 -38.3355 0.36428 -5.76385 14.4546 -23.1039 2.09733 27.5423 -0.0 -0.0 0.0 0.0 0.0 
670.241 683.773 -1573.08 2.50101 82.921 6.81427 1.07105 -0.493407 -3.39267 1.07741 -0.276652 -3.41715 1.09537 0.382958 -3.40688 1.07921 -0.159576 -3.4246 -20.2977 12.5955 4.78241 -20.9622 21.8962 9.92898 -0.0 0.0 -0.0 7.99253 20.9639 14.1785 -5.31259 -34.2835 58.0543 2.28334 -48.5135 1.029 -25.0603 -1.51984 2.79493 -0.61873 18.0786 3.58216 -0.0 0.0 -0.0 8.98938 -24.3173 -15.1999 -11.9165 6.42682 -51.7969 0.640104 17.5933 -0.0990563 -49.8711 4.05669 -4.67614 8.0245 10.7863 -58.9806 0.0 0.0 0.0 11.1201 12.7327 -15.3132 -8.21768 0.25011 1.23529 17.9556 -16.7527 -2.7085 -0.372043 0.0 0.0 -0.0 0.0 -0.0 17.8769 2.17747 -8.51559 -34.4842 0.153643 -5.21095 14.9304 -22.012 2.15164 26.5709 -0.0 -0.0 0.0 0.0 0.0 
662.028 687.25 -1572.44 1.3754 83.2891 7.72709 1.07988 -0.743973 -3.41934 1.08623 -0.525018 -3.45968 1.11969 0.145409 -3.49623 1.10286 -0.408239 -3.47538 -21.802 13.9611 4.9211 -22.7861 24.6007 11.1081 -0.0 0.0 -0.0 7.92299 20.4958 14.1249 -5.58109 -34.5108 58.2189 2.23152 -47.8602 0.990375 -24.4228 -1.46653 2.73303 -0.57957 17.559 3.60442 -0.0 0.0 -0.0 9.03702 -25.0137 -15.1547 -10.9042 5.78486 -50.6526 0.486 13.5366 -0.0576796 -48.0433 3.84426 -4.57667 8.17737 10.6037 -61.1509 0.0 0.0 0.0 9.81375 13.2884 -14.7114 -5.66153 0.191353 0.847456 15.4026 -17.3574 -2.36376 -1.4864 0.0 0.0 -0.0 0.0 -0.0 17.5806 3.86984 -8.54068 -28.5195 -0.0979196 -4.33062 15.506 -19.3401 2.20565 18.9921 -0.0 -0.0 0.0 0.0 0.0 
659.236 685.992 -1571.18 -0.0232978 82.9864 8.79522 1.42054 -0.833891 -3.39587 1.42675 -0.616245 -3.44197 1.46497 0.0312084 -3.4965 1.44829 -0.521055 -3.45765 -22.4307 13.8895 5.52125 -23.4073 24.2412 11.7739 -0.0 0.0 -0.0 7.99505 20.9114 14.1884 -5.72809 -34.7947 58.6716 2.09394 -46.0426 0.889823 -25.481 -1.5554 2.83546 -0.481905 16.4864 3.75845 -0.0 0.0 -0.0 9.22148 -25.4312 -15.3464 -10.4302 6.30511 -49.6404 0.307887 8.67201 -0.0233447 -49.1019 3.96691 -4.63511 8.0759 6.20078 -64.396 0.0 0.0 0.0 7.69901 13.4033 -13.9613 -2.61225 0.0987074 0.388708 14.8127 -18.5182 -2.30156 -3.67101 0.0 0.0 -0.0 0.0 -0.0 17.0602 3.08777 -7.67735 -22.6047 -0.255614 -3.437 14.5278 -10.265 2.03283 12.0188 -0.0 -0.0 0.0 0.0 0.0 
654.636 685.751 -1572.54 4.11557 82.8178 4.39754 1.28376 -0.942648 -3.42758 1.29001 -0.722768 -3.48053 1.33551 -0.0585017 -3.55421 1.31842 -0.618741 -3.5005 -22.5514 14.1242 5.65318 -23.5714 24.6444 12.0505 -0.0 0.0 -0.0 7.80782 20.5686 13.94 -5.95087 -35.0065 58.7583 2.04375 -45.3481 0.853905 -25.3654 -1.5456 2.82435 -0.474476 16.862 3.95818 -0.0 0.0 -0.0 9.56393 -26.2738 -15.6766 -9.89737 6.37619 -48.8003 0.259035 7.3123 -0.016552 -49.091 3.96564 -4.63452 8.11868 4.78574 -66.6218 0.0 0.0 0.0 6.66041 13.6559 -13.6361 -2.39311 0.0911103 0.355936 16.0767 -18.1516 -2.47535 -4.74535 0.0 0.0 -0.0 0.0 -0.0 16.8612 4.65424 -7.60861 -18.0115 -0.314006 -2.73482 8.58351 -6.16756 1.22653 8.07576 -0.0 -0.0 0.0 0.0 0.0 
651.468 683.473 -1572.85 3.34197 82.9154 4.96216 1.30202 -0.986275 -3.51884 1.30858 -0.760511 -3.57437 1.35769 -0.0794976 -3.65341 1.33967 -0.655111 -3.59515 -22.742 14.9076 5.65031 -23.9362 26.1721 12.5322 -0.0 0.0 -0.0 7.84211 20.4069 14.0102 -6.32809 -35.1183 58.9367 2.05167 -45.4589 0.859549 -25.097 -1.52293 2.79848 -0.0737025 15.7056 5.9605 -0.0 0.0 -0.0 10.0371 -26.2917 -16.3384 -10.0716 5.80518 -47.2969 0.234127 6.61573 -0.0135319 -49.9004 4.06012 -4.67768 8.00237 0.855461 -68.9254 0.0 0.0 0.0 4.99197 14.1846 -12.9585 1.92725 -0.0841475 -0.283749 14.7758 -20.2289 -2.33121 -5.34612 0.0 0.0 -0.0 0.0 -0.0 16.0957 4.91288 -7.07273 -14.9234 -0.321555 -2.26113 8.80686 -7.28969 1.25698 2.71856 -0.0 -0.0 0.0 0.0 0.0 
645.884 685.373 -1572.6 0.565196 82.3951 7.41199 1.33028 -0.846734 -3.42684 1.33659 -0.627095 -3.4737 1.37601 0.031887 -3.52964 1.35901 -0.525608 -3.49048 -22.5191 14.7574 6.91498 -23.5476 25.2886 13.5083 -0.0 0.0 -0.0 7.8165 21.0846 13.8968 -6.83089 -35.1124 59.1514 2.10529 -46.1973 0.898005 -25.8909 -1.59033 2.8747 -0.0596332 16.0545 6.18502 -0.0 0.0 -0.0 10.322 -26.2567 -16.7494 -10.6077 4.58019 -46.514 0.248568 7.01984 -0.0152463 -47.3026 3.75909 -4.53444 7.99377 -1.33962 -71.2145 0.0 0.0 0.0 4.43554 14.1383 -12.2851 2.42737 -0.107543 -0.356915 14.8636 -20.7456 -2.35534 -6.3578 0.0 0.0 -0.0 0.0 -0.0 15.1733 5.08987 -6.77764 -12.4967 -0.309573 -1.88903 8.70334 -6.29057 1.24308 -1.81379 0.0 0.0 0.0 0.0 0.0 
642.172 686.269 -1574.26 -1.72213 82.7655 9.20544 1.1591 -0.869137 -3.37957 1.16522 -0.652454 -3.42795 1.20597 0.00875336 -3.48941 1.1894 -0.542111 -3.4471 -24.155 15.3234 7.82879 -25.3761 26.1643 15.1209 -0.0 0.0 -0.0 7.95872 21.5532 14.0588 -7.09299 -35.9955 59.3895 2.01383 -44.9258 0.832698 -27.4829 -1.72866 3.02472 0.183237 14.42 7.06 -0.0 0.0 -0.0 10.7427 -26.5108 -17.2918 -11.0405 3.80167 -45.955 0.270461 7.63115 -0.0180379 -47.5075 3.7826 -4.54623 7.96708 -4.10069 -73.8496 0.0 0.0 0.0 4.21195 14.788 -11.7737 3.05079 -0.1376 -0.447837 15.8264 -20.5471 -2.49171 -6.54598 0.0 0.0 -0.0 0.0 -0.0 14.551 5.16213 -6.55525 -11.6697 -0.30189 -1.76237 9.93873 -5.21346 1.41454 -5.07187 0.0 0.0 0.0 0.0 0.0 
633.849 690.602 -1576.72 -2.02927 82.4505 9.24837 1.11043 -0.846179 -3.39832 1.11663 -0.628352 -3.4452 1.15621 0.0387804 -3.50175 1.13947 -0.514406 -3.46403 -24.9298 15.3954 8.49543 -26.1794 26.1146 15.9915 -0.0 0.0 -0.0 7.88173 22.4223 13.8414 -8.0245 -36.3411 59.4602 1.98865 -44.5655 0.814975 -28.6473 -1.83246 3.132 0.317867 13.8424 7.68439 -0.0 0.0 -0.0 11.1028 -26.751 -17.7485 -11.1965 3.11866 -45.4306 0.277111 7.81648 -0.0189317 -47.7676 3.81249 -4.56108 7.93686 -5.67336 -74.9763 0.0 0.0 0.0 3.76389 15.8224 -11.3546 3.55879 -0.162826 -0.521685 16.3924 -21.2195 -2.58991 -6.65841 0.0 0.0 -0.0 0.0 -0.0 13.8658 5.29667 -6.39476 -11.0452 -0.294877 -1.6668 9.30421 -4.56718 1.32794 -8.12565 0.0 0.0 0.0 0.0 0.0 
630.193 689.466 -1575.71 -0.417486 82.0929 7.37062 1.22467 -0.777356 -3.25925 1.2304 -0.568503 -3.30204 1.26459 0.064033 -3.34996 1.24923 -0.465538 -3.31811 -21.8418 16.0896 9.10065 -22.8454 26.7638 15.9557 -0.0 0.0 -0.0 7.85337 23.2137 13.705 -9.14624 -36.8098 59.4151 1.95235 -44.0382 0.789623 -29.668 -1.92523 3.22431 0.607451 12.7292 9.0995 -0.0 0.0 -0.0 11.3583 -26.7128 -18.1237 -11.4925 2.5271 -45.3939 0.277593 7.82989 -0.0189971 -47.9231 3.8304 -4.56989 7.79398 -7.5809 -73.3511 0.0 0.0 0.0 3.79636 16.5676 -11.1203 1.50415 -0.0648555 -0.221695 16.9526 -20.1592 -2.64479 -7.19405 0.0 0.0 -0.0 0.0 -0.0 13.4817 4.74259 -6.15266 -10.6507 -0.289911 -1.60648 8.66782 -4.37346 1.24006 -10.2693 0.0 0.0 0.0 0.0 0.0 
621.933 690.559 -1578.82 -2.85655 81.7459 9.49555 1.1867 -0.729221 -3.14411 1.19205 -0.527779 -3.18409 1.22274 0.084204 -3.22639 1.20847 -0.426135 -3.19926 -21.5009 16.0084 8.18879 -22.548 26.9813 15.005 -0.0 0.0 -0.0 7.94986 24.0524 13.7402 -10.2883 -36.747 59.1526 1.92245 -43.5966 0.76892 -30.4887 -2.00102 3.29732 0.812835 11.8123 10.0735 -0.0 0.0 -0.0 11.6573 -26.7585 -18.5425 -11.7041 2.04876 -45.2937 0.277911 7.83874 -0.0190404 -47.6317 3.79686 -4.55334 7.5695 -9.07407 -69.5864 0.0 0.0 0.0 4.71137 18.1788 -11.0769 0.165055 -0.00683159 -0.0244077 17.9644 -19.1433 -2.76334 -7.57805 0.0 0.0 -0.0 0.0 -0.0 13.1744 4.46987 -5.91098 -10.3657 -0.286063 -1.56291 9.93063 -3.40438 1.41622 -11.9998 0.0 0.0 0.0 0.0 0.0 
